<svg xmlns="http://www.w3.org/2000/svg" width="1100" height="560" viewBox="0 0 1100 560" role="img" aria-labelledby="title desc">
  <title id="title">Cinematique et dynamique en biomecanique</title>
  <desc id="desc">Schema original comparant l'observation du mouvement et l'estimation des forces.</desc>
  <rect width="1100" height="560" fill="#f7f7f2"/>
  <rect x="70" y="70" width="420" height="390" rx="8" fill="#ffffff" stroke="#27343b" stroke-width="3"/>
  <rect x="610" y="70" width="420" height="390" rx="8" fill="#ffffff" stroke="#27343b" stroke-width="3"/>
  <text x="280" y="125" text-anchor="middle" font-family="Arial, sans-serif" font-size="32" font-weight="700" fill="#27343b">Cinematique</text>
  <text x="820" y="125" text-anchor="middle" font-family="Arial, sans-serif" font-size="32" font-weight="700" fill="#27343b">Dynamique</text>
  <path d="M150 350 C210 220, 310 220, 410 350" fill="none" stroke="#1f77b4" stroke-width="8"/>
  <circle cx="150" cy="350" r="12" fill="#1f77b4"/>
  <circle cx="280" cy="250" r="12" fill="#1f77b4"/>
  <circle cx="410" cy="350" r="12" fill="#1f77b4"/>
  <text x="280" y="410" text-anchor="middle" font-family="Arial, sans-serif" font-size="24" fill="#27343b">positions, vitesses, accelerations</text>
  <line x1="545" y1="265" x2="565" y2="265" stroke="#27343b" stroke-width="4"/>
  <polygon points="565,265 545,253 545,277" fill="#27343b"/>
  <circle cx="820" cy="250" r="42" fill="#e07a5f" opacity="0.95"/>
  <line x1="820" y1="292" x2="820" y2="390" stroke="#27343b" stroke-width="8"/>
  <line x1="760" y1="390" x2="880" y2="390" stroke="#27343b" stroke-width="8"/>
  <line x1="820" y1="390" x2="735" y2="430" stroke="#27343b" stroke-width="8"/>
  <line x1="820" y1="390" x2="905" y2="430" stroke="#27343b" stroke-width="8"/>
  <line x1="820" y1="250" x2="820" y2="170" stroke="#2a9d8f" stroke-width="10"/>
  <polygon points="820,150 802,175 838,175" fill="#2a9d8f"/>
  <line x1="735" y1="430" x2="685" y2="470" stroke="#8d5a97" stroke-width="10"/>
  <polygon points="670,482 680,452 702,479" fill="#8d5a97"/>
  <text x="910" y="185" font-family="Arial, sans-serif" font-size="24" fill="#27343b">forces</text>
  <text x="650" y="505" font-family="Arial, sans-serif" font-size="24" fill="#27343b">moments</text>
  <text x="820" y="410" text-anchor="middle" font-family="Arial, sans-serif" font-size="24" fill="#27343b">interactions et causes mecaniques</text>
</svg>

